<mxfile host="Electron" modified="2023-12-06T03:10:05.626Z" agent="Mozilla/5.0 (Windows NT 10.0; Win64; x64) AppleWebKit/537.36 (KHTML, like Gecko) draw.io/22.0.3 Chrome/114.0.5735.289 Electron/25.8.4 Safari/537.36" etag="UZh9mQUeA6NBBi-4bU7l" version="22.0.3" type="device">
  <diagram name="Page-1" id="13e1069c-82ec-6db2-03f1-153e76fe0fe0">
    <mxGraphModel dx="1292" dy="1104" grid="1" gridSize="10" guides="1" tooltips="1" connect="1" arrows="1" fold="1" page="1" pageScale="1" pageWidth="1100" pageHeight="850" background="none" math="0" shadow="0">
      <root>
        <mxCell id="0" />
        <mxCell id="1" parent="0" />
        <object placeholders="1" c4Name="Диаграмма последовательности работы сервиса" c4Type="SystemScopeBoundary" c4Application="Цифровой сервис" label="&lt;font style=&quot;font-size: 16px&quot;&gt;&lt;b&gt;&lt;div style=&quot;&quot;&gt;%c4Name%&lt;/div&gt;&lt;/b&gt;&lt;/font&gt;&lt;div style=&quot;&quot;&gt;[%c4Application%]&lt;/div&gt;" id="g3VUzG2XUiAYz7PPz2bv-24">
          <mxCell style="rounded=1;fontSize=11;whiteSpace=wrap;html=1;dashed=1;arcSize=20;fillColor=#86a4b3;strokeColor=#10739e;labelBackgroundColor=none;align=center;verticalAlign=bottom;labelBorderColor=none;spacingTop=0;spacing=10;dashPattern=8 4;metaEdit=1;rotatable=0;perimeter=rectanglePerimeter;noLabel=0;labelPadding=0;allowArrows=0;connectable=0;expand=0;recursiveResize=0;editable=1;pointerEvents=0;absoluteArcSize=1;points=[[0.25,0,0],[0.5,0,0],[0.75,0,0],[1,0.25,0],[1,0.5,0],[1,0.75,0],[0.75,1,0],[0.5,1,0],[0.25,1,0],[0,0.75,0],[0,0.5,0],[0,0.25,0]];opacity=70;" vertex="1" parent="1">
            <mxGeometry x="40" y="40" width="920" height="570" as="geometry" />
          </mxCell>
        </object>
        <mxCell id="7baba1c4bc27f4b0-5" value="Gradio AI App" style="shape=umlLifeline;perimeter=lifelinePerimeter;whiteSpace=wrap;html=1;container=1;collapsible=0;recursiveResize=0;outlineConnect=0;rounded=1;shadow=0;comic=0;labelBackgroundColor=none;strokeWidth=1;fontFamily=Verdana;fontSize=12;align=center;fillColor=#85a2b2;" parent="1" vertex="1">
          <mxGeometry x="680" y="80" width="100" height="440" as="geometry" />
        </mxCell>
        <mxCell id="g3VUzG2XUiAYz7PPz2bv-11" value="возвращает воркер" style="html=1;verticalAlign=bottom;endArrow=open;dashed=1;endSize=8;labelBackgroundColor=none;fontFamily=Verdana;fontSize=12;edgeStyle=elbowEdgeStyle;elbow=vertical;" edge="1" parent="7baba1c4bc27f4b0-5">
          <mxGeometry relative="1" as="geometry">
            <mxPoint x="55" y="214.5" as="targetPoint" />
            <Array as="points">
              <mxPoint x="130" y="214.5" />
              <mxPoint x="160" y="214.5" />
            </Array>
            <mxPoint x="185" y="214.5" as="sourcePoint" />
          </mxGeometry>
        </mxCell>
        <mxCell id="g3VUzG2XUiAYz7PPz2bv-12" value="" style="html=1;points=[];perimeter=orthogonalPerimeter;rounded=0;shadow=0;comic=0;labelBackgroundColor=none;strokeWidth=1;fontFamily=Verdana;fontSize=12;align=center;opacity=70;fillColor=#b1ddf0;strokeColor=#10739e;" vertex="1" parent="7baba1c4bc27f4b0-5">
          <mxGeometry x="50" y="230" width="10" height="60" as="geometry" />
        </mxCell>
        <mxCell id="7baba1c4bc27f4b0-19" value="" style="html=1;points=[];perimeter=orthogonalPerimeter;rounded=0;shadow=0;comic=0;labelBackgroundColor=none;strokeWidth=1;fontFamily=Verdana;fontSize=12;align=center;fillColor=#b1ddf0;strokeColor=#10739e;opacity=70;" parent="1" vertex="1">
          <mxGeometry x="725" y="230" width="10" height="190" as="geometry" />
        </mxCell>
        <mxCell id="7baba1c4bc27f4b0-2" value="Приложение" style="shape=umlLifeline;perimeter=lifelinePerimeter;whiteSpace=wrap;html=1;container=1;collapsible=0;recursiveResize=0;outlineConnect=0;rounded=1;shadow=0;comic=0;labelBackgroundColor=none;strokeWidth=1;fontFamily=Verdana;fontSize=12;align=center;fillColor=#85a2b2;" parent="1" vertex="1">
          <mxGeometry x="240" y="80" width="100" height="440" as="geometry" />
        </mxCell>
        <mxCell id="g3VUzG2XUiAYz7PPz2bv-23" value="" style="html=1;points=[];perimeter=orthogonalPerimeter;rounded=0;shadow=0;comic=0;labelBackgroundColor=none;strokeWidth=1;fontFamily=Verdana;fontSize=12;align=center;fillColor=#b1ddf0;strokeColor=#10739e;opacity=70;" vertex="1" parent="7baba1c4bc27f4b0-2">
          <mxGeometry x="50" y="140" width="10" height="190" as="geometry" />
        </mxCell>
        <mxCell id="7baba1c4bc27f4b0-10" value="" style="html=1;points=[];perimeter=orthogonalPerimeter;rounded=0;shadow=0;comic=0;labelBackgroundColor=none;strokeWidth=1;fontFamily=Verdana;fontSize=12;align=center;strokeColor=#10739e;fillColor=#b1ddf0;opacity=70;" parent="7baba1c4bc27f4b0-2" vertex="1">
          <mxGeometry x="45" y="100" width="10" height="300" as="geometry" />
        </mxCell>
        <mxCell id="g3VUzG2XUiAYz7PPz2bv-22" value="ожидает ответ" style="html=1;verticalAlign=bottom;endArrow=block;labelBackgroundColor=none;fontFamily=Verdana;fontSize=12;elbow=vertical;edgeStyle=orthogonalEdgeStyle;curved=1;" edge="1" parent="7baba1c4bc27f4b0-2">
          <mxGeometry x="0.1304" y="14" relative="1" as="geometry">
            <mxPoint x="61" y="190.25" as="sourcePoint" />
            <mxPoint x="62" y="280.2500000000002" as="targetPoint" />
            <Array as="points">
              <mxPoint x="110" y="190" />
              <mxPoint x="110" y="280" />
            </Array>
            <mxPoint as="offset" />
          </mxGeometry>
        </mxCell>
        <mxCell id="7baba1c4bc27f4b0-3" value="Telegram API" style="shape=umlLifeline;perimeter=lifelinePerimeter;whiteSpace=wrap;html=1;container=1;collapsible=0;recursiveResize=0;outlineConnect=0;rounded=1;shadow=0;comic=0;labelBackgroundColor=none;strokeWidth=1;fontFamily=Verdana;fontSize=12;align=center;fillColor=#85a2b2;" parent="1" vertex="1">
          <mxGeometry x="400" y="80" width="100" height="440" as="geometry" />
        </mxCell>
        <mxCell id="7baba1c4bc27f4b0-13" value="" style="html=1;points=[];perimeter=orthogonalPerimeter;rounded=0;shadow=0;comic=0;labelBackgroundColor=none;strokeWidth=1;fontFamily=Verdana;fontSize=12;align=center;fillColor=#b1ddf0;strokeColor=#10739e;opacity=70;" parent="7baba1c4bc27f4b0-3" vertex="1">
          <mxGeometry x="45" y="120" width="10" height="250" as="geometry" />
        </mxCell>
        <mxCell id="7baba1c4bc27f4b0-4" value="Telegram бот" style="shape=umlLifeline;perimeter=lifelinePerimeter;whiteSpace=wrap;html=1;container=1;collapsible=0;recursiveResize=0;outlineConnect=0;rounded=1;shadow=0;comic=0;labelBackgroundColor=none;strokeWidth=1;fontFamily=Verdana;fontSize=12;align=center;fillColor=#85a2b2;" parent="1" vertex="1">
          <mxGeometry x="540" y="80" width="100" height="440" as="geometry" />
        </mxCell>
        <mxCell id="g3VUzG2XUiAYz7PPz2bv-19" value="ожидает ответ" style="html=1;verticalAlign=bottom;endArrow=block;labelBackgroundColor=none;fontFamily=Verdana;fontSize=12;elbow=vertical;edgeStyle=orthogonalEdgeStyle;curved=1;" edge="1" parent="7baba1c4bc27f4b0-4">
          <mxGeometry x="0.1304" y="14" relative="1" as="geometry">
            <mxPoint x="61" y="180" as="sourcePoint" />
            <mxPoint x="62" y="270.0000000000002" as="targetPoint" />
            <Array as="points">
              <mxPoint x="110" y="180" />
              <mxPoint x="110" y="270" />
            </Array>
            <mxPoint as="offset" />
          </mxGeometry>
        </mxCell>
        <mxCell id="g3VUzG2XUiAYz7PPz2bv-18" value="" style="html=1;points=[];perimeter=orthogonalPerimeter;rounded=0;shadow=0;comic=0;labelBackgroundColor=none;strokeWidth=1;fontFamily=Verdana;fontSize=12;align=center;opacity=70;fillColor=#b1ddf0;strokeColor=#10739e;" vertex="1" parent="7baba1c4bc27f4b0-4">
          <mxGeometry x="50" y="160" width="10" height="150" as="geometry" />
        </mxCell>
        <mxCell id="7baba1c4bc27f4b0-6" value="ML модель" style="shape=umlLifeline;perimeter=lifelinePerimeter;whiteSpace=wrap;html=1;container=1;collapsible=0;recursiveResize=0;outlineConnect=0;rounded=1;shadow=0;comic=0;labelBackgroundColor=none;strokeWidth=1;fontFamily=Verdana;fontSize=12;align=center;fillColor=#85a2b2;" parent="1" vertex="1">
          <mxGeometry x="820" y="80" width="100" height="440" as="geometry" />
        </mxCell>
        <mxCell id="7baba1c4bc27f4b0-28" value="" style="html=1;points=[];perimeter=orthogonalPerimeter;rounded=0;shadow=0;comic=0;labelBackgroundColor=none;strokeWidth=1;fontFamily=Verdana;fontSize=12;align=center;opacity=70;fillColor=#b1ddf0;strokeColor=#10739e;" parent="7baba1c4bc27f4b0-6" vertex="1">
          <mxGeometry x="45" y="160" width="10" height="60" as="geometry" />
        </mxCell>
        <mxCell id="g3VUzG2XUiAYz7PPz2bv-9" value="иниц. пайплайн" style="html=1;verticalAlign=bottom;endArrow=block;entryX=0;entryY=0;labelBackgroundColor=none;fontFamily=Verdana;fontSize=12;edgeStyle=elbowEdgeStyle;elbow=vertical;" edge="1" parent="7baba1c4bc27f4b0-6">
          <mxGeometry relative="1" as="geometry">
            <mxPoint x="-85" y="170" as="sourcePoint" />
            <mxPoint x="45" y="170" as="targetPoint" />
          </mxGeometry>
        </mxCell>
        <mxCell id="7baba1c4bc27f4b0-16" value="" style="html=1;points=[];perimeter=orthogonalPerimeter;rounded=0;shadow=0;comic=0;labelBackgroundColor=none;strokeWidth=1;fontFamily=Verdana;fontSize=12;align=center;fillColor=#b1ddf0;strokeColor=#10739e;opacity=70;" parent="1" vertex="1">
          <mxGeometry x="585" y="220" width="10" height="210" as="geometry" />
        </mxCell>
        <mxCell id="7baba1c4bc27f4b0-8" value="Пользователь" style="shape=umlLifeline;perimeter=lifelinePerimeter;whiteSpace=wrap;html=1;container=1;collapsible=0;recursiveResize=0;outlineConnect=0;rounded=1;shadow=0;comic=0;labelBackgroundColor=none;strokeWidth=1;fontFamily=Verdana;fontSize=12;align=center;fillColor=#85a2b2;" parent="1" vertex="1">
          <mxGeometry x="100" y="80" width="100" height="440" as="geometry" />
        </mxCell>
        <mxCell id="7baba1c4bc27f4b0-9" value="" style="html=1;points=[];perimeter=orthogonalPerimeter;rounded=0;shadow=0;comic=0;labelBackgroundColor=none;strokeWidth=1;fontFamily=Verdana;fontSize=12;align=center;fillColor=#b1ddf0;strokeColor=#10739e;opacity=70;" parent="7baba1c4bc27f4b0-8" vertex="1">
          <mxGeometry x="45" y="100" width="10" height="320" as="geometry" />
        </mxCell>
        <mxCell id="7baba1c4bc27f4b0-17" value="предает запрос" style="html=1;verticalAlign=bottom;endArrow=block;labelBackgroundColor=none;fontFamily=Verdana;fontSize=12;edgeStyle=elbowEdgeStyle;elbow=vertical;" parent="1" source="7baba1c4bc27f4b0-13" target="7baba1c4bc27f4b0-16" edge="1">
          <mxGeometry relative="1" as="geometry">
            <mxPoint x="510" y="220" as="sourcePoint" />
            <Array as="points">
              <mxPoint x="460" y="220" />
            </Array>
          </mxGeometry>
        </mxCell>
        <mxCell id="7baba1c4bc27f4b0-20" value="обращается к прил." style="html=1;verticalAlign=bottom;endArrow=block;entryX=0;entryY=0;labelBackgroundColor=none;fontFamily=Verdana;fontSize=12;edgeStyle=elbowEdgeStyle;elbow=vertical;" parent="1" source="7baba1c4bc27f4b0-16" target="7baba1c4bc27f4b0-19" edge="1">
          <mxGeometry relative="1" as="geometry">
            <mxPoint x="650" y="230" as="sourcePoint" />
          </mxGeometry>
        </mxCell>
        <mxCell id="7baba1c4bc27f4b0-11" value="вводит текст" style="html=1;verticalAlign=bottom;endArrow=block;entryX=0;entryY=0;labelBackgroundColor=none;fontFamily=Verdana;fontSize=12;edgeStyle=elbowEdgeStyle;elbow=vertical;" parent="1" source="7baba1c4bc27f4b0-9" target="7baba1c4bc27f4b0-10" edge="1">
          <mxGeometry relative="1" as="geometry">
            <mxPoint x="220" y="190" as="sourcePoint" />
          </mxGeometry>
        </mxCell>
        <mxCell id="7baba1c4bc27f4b0-14" value="отправляет запрос" style="html=1;verticalAlign=bottom;endArrow=block;entryX=0;entryY=0;labelBackgroundColor=none;fontFamily=Verdana;fontSize=12;edgeStyle=elbowEdgeStyle;elbow=vertical;" parent="1" source="7baba1c4bc27f4b0-10" target="7baba1c4bc27f4b0-13" edge="1">
          <mxGeometry relative="1" as="geometry">
            <mxPoint x="370" y="200" as="sourcePoint" />
          </mxGeometry>
        </mxCell>
        <mxCell id="7baba1c4bc27f4b0-21" value="возвращает рез-т" style="html=1;verticalAlign=bottom;endArrow=open;dashed=1;endSize=8;labelBackgroundColor=none;fontFamily=Verdana;fontSize=12;edgeStyle=elbowEdgeStyle;elbow=vertical;" parent="1" edge="1">
          <mxGeometry relative="1" as="geometry">
            <mxPoint x="595" y="409" as="targetPoint" />
            <Array as="points">
              <mxPoint x="670" y="409" />
              <mxPoint x="700" y="409" />
            </Array>
            <mxPoint x="725" y="409" as="sourcePoint" />
          </mxGeometry>
        </mxCell>
        <mxCell id="g3VUzG2XUiAYz7PPz2bv-7" value="возвращает ответ" style="html=1;verticalAlign=bottom;endArrow=open;dashed=1;endSize=8;labelBackgroundColor=none;fontFamily=Verdana;fontSize=12;edgeStyle=elbowEdgeStyle;elbow=vertical;" edge="1" parent="1">
          <mxGeometry relative="1" as="geometry">
            <mxPoint x="300" y="450" as="targetPoint" />
            <Array as="points">
              <mxPoint x="375" y="450" />
              <mxPoint x="405" y="450" />
            </Array>
            <mxPoint x="440" y="450" as="sourcePoint" />
            <mxPoint as="offset" />
          </mxGeometry>
        </mxCell>
        <mxCell id="g3VUzG2XUiAYz7PPz2bv-6" value="передает ответ" style="html=1;verticalAlign=bottom;endArrow=open;dashed=1;endSize=8;labelBackgroundColor=none;fontFamily=Verdana;fontSize=12;edgeStyle=elbowEdgeStyle;elbow=vertical;" edge="1" parent="1">
          <mxGeometry relative="1" as="geometry">
            <mxPoint x="455" y="430" as="targetPoint" />
            <Array as="points">
              <mxPoint x="530" y="430" />
              <mxPoint x="560" y="430" />
            </Array>
            <mxPoint x="585" y="430" as="sourcePoint" />
          </mxGeometry>
        </mxCell>
        <mxCell id="g3VUzG2XUiAYz7PPz2bv-16" value="выполняет обр." style="html=1;verticalAlign=bottom;endArrow=block;labelBackgroundColor=none;fontFamily=Verdana;fontSize=12;elbow=vertical;edgeStyle=orthogonalEdgeStyle;curved=1;exitX=1.25;exitY=0.175;exitDx=0;exitDy=0;exitPerimeter=0;entryX=1.093;entryY=0.791;entryDx=0;entryDy=0;entryPerimeter=0;" edge="1" parent="1" source="g3VUzG2XUiAYz7PPz2bv-12" target="7baba1c4bc27f4b0-19">
          <mxGeometry x="0.1314" y="14" relative="1" as="geometry">
            <mxPoint x="740" y="340" as="sourcePoint" />
            <mxPoint x="731" y="379" as="targetPoint" />
            <Array as="points">
              <mxPoint x="790" y="320" />
              <mxPoint x="790" y="380" />
            </Array>
            <mxPoint as="offset" />
          </mxGeometry>
        </mxCell>
        <mxCell id="g3VUzG2XUiAYz7PPz2bv-8" value="видит рез-т" style="html=1;verticalAlign=bottom;endArrow=open;dashed=1;endSize=8;labelBackgroundColor=none;fontFamily=Verdana;fontSize=12;edgeStyle=elbowEdgeStyle;elbow=vertical;" edge="1" parent="1">
          <mxGeometry relative="1" as="geometry">
            <mxPoint x="160" y="470" as="targetPoint" />
            <Array as="points">
              <mxPoint x="235" y="470" />
              <mxPoint x="265" y="470" />
            </Array>
            <mxPoint x="285" y="470" as="sourcePoint" />
            <mxPoint as="offset" />
          </mxGeometry>
        </mxCell>
      </root>
    </mxGraphModel>
  </diagram>
</mxfile>
